<svg xmlns="http://www.w3.org/2000/svg" viewBox="-160 -140 666.54 666.54"><defs><style>.cls-1{fill:none}*{fill:#dcdcdc}</style></defs><title>NoImage_1</title><g id="Layer_2" data-name="Layer 2"><g id="Layer_40" data-name="Layer 40"><path class="cls-1" d="M206.59 164.56a13 13 0 1 1 13-13 13 13 0 0 1-13 13z"/><path d="M233.13 126.95v74.69l13.9 13.9V113.05H144.54l13.91 13.9h74.68zM100.41 206.59V131.9L86.51 118V220.49H189l-13.91-13.9h-74.68z"/><circle cx="206.59" cy="151.6" r="12.96"/><path d="M163.09 194.58l-30.04-30.04-20.32 30.04h50.36z"/><path d="M166.77 0a166.77 166.77 0 1 0 166.77 166.77A166.77 166.77 0 0 0 166.77 0zM318.4 166.77a150.94 150.94 0 0 1-29.82 90.31q-4.28 5.76-9.08 11.1L65.36 54.05q5.33-4.8 11.1-9.08a151.63 151.63 0 0 1 241.94 121.8zm-303.25 0A150.94 150.94 0 0 1 45 76.46q4.28-5.76 9.08-11.1l214.1 214.13q-5.33 4.8-11.1 9.08a151.63 151.63 0 0 1-241.94-121.8z"/></g></g></svg>